+ filenameToUse=/home/horvathandras/vatic/vatic/public/videouploads/DJI_0067_30m_regi_disznoturas_regi_belvizfolt_homokmegy_20180603_napos_kalaszos_T4.avi
+ filenameNoDot=DJI_0067_30m_regi_disznoturas_regi_belvizfolt_homokmegy_20180603_napos_kalaszos_T4
+ FullUploadPath=/home/horvathandras/vatic/vatic/public/videouploads/DJI_0067_30m_regi_disznoturas_regi_belvizfolt_homokmegy_20180603_napos_kalaszos_T4.avi
+ VideoDataDir=/home/horvathandras/vatic/vatic/videos
+ AvailableObjectTypes='PozitívROI NegatívROI Túrás ~Friss ~1-2Hetes ~Régebbi ~Egyéb1 ~Egyéb2 ~Egyéb3 Rágás ~Friss ~1-2Hetes ~Régebbi ~Egyéb1 ~Egyéb2 ~Egyéb3 Törés ~Friss ~1-2Hetes ~Régebbi ~Egyéb1 ~Egyéb2 ~Egyéb3 Taposás ~Friss ~1-2Hetes ~Régebbi ~Egyéb1 ~Egyéb2 ~Egyéb3 EgészségesNövény Egyéb1 Egyéb2 Egyéb3 Egyéb4 Egyéb5 Bizonytalan Művelőút Gktaposás Vetőhiba Széldöntés Jégkár Belvíz Aszály Erózió EgyszikűGyom KétszikűGyom EgyébNövvédelmiPR'
++ dirname /home/horvathandras/vatic/vatic/vatic_publisher.sh
+ cd /home/horvathandras/vatic/vatic
+ touch /home/horvathandras/vatic/vatic/public/videouploads/DJI_0067_30m_regi_disznoturas_regi_belvizfolt_homokmegy_20180603_napos_kalaszos_T4.avi
+ chmod 744 /home/horvathandras/vatic/vatic/public/videouploads/DJI_0067_30m_regi_disznoturas_regi_belvizfolt_homokmegy_20180603_napos_kalaszos_T4.avi
+ mkdir /home/horvathandras/vatic/vatic/videos/DJI_0067_30m_regi_disznoturas_regi_belvizfolt_homokmegy_20180603_napos_kalaszos_T4
+ turkic extract /home/horvathandras/vatic/vatic/public/videouploads/DJI_0067_30m_regi_disznoturas_regi_belvizfolt_homokmegy_20180603_napos_kalaszos_T4.avi /home/horvathandras/vatic/vatic/videos/DJI_0067_30m_regi_disznoturas_regi_belvizfolt_homokmegy_20180603_napos_kalaszos_T4 --no-resize
ffmpeg version 2.8.14-0ubuntu0.16.04.1 Copyright (c) 2000-2018 the FFmpeg developers
  built with gcc 5.4.0 (Ubuntu 5.4.0-6ubuntu1~16.04.9) 20160609
  configuration: --prefix=/usr --extra-version=0ubuntu0.16.04.1 --build-suffix=-ffmpeg --toolchain=hardened --libdir=/usr/lib/x86_64-linux-gnu --incdir=/usr/include/x86_64-linux-gnu --cc=cc --cxx=g++ --enable-gpl --enable-shared --disable-stripping --disable-decoder=libopenjpeg --disable-decoder=libschroedinger --enable-avresample --enable-avisynth --enable-gnutls --enable-ladspa --enable-libass --enable-libbluray --enable-libbs2b --enable-libcaca --enable-libcdio --enable-libflite --enable-libfontconfig --enable-libfreetype --enable-libfribidi --enable-libgme --enable-libgsm --enable-libmodplug --enable-libmp3lame --enable-libopenjpeg --enable-libopus --enable-libpulse --enable-librtmp --enable-libschroedinger --enable-libshine --enable-libsnappy --enable-libsoxr --enable-libspeex --enable-libssh --enable-libtheora --enable-libtwolame --enable-libvorbis --enable-libvpx --enable-libwavpack --enable-libwebp --enable-libx265 --enable-libxvid --enable-libzvbi --enable-openal --enable-opengl --enable-x11grab --enable-libdc1394 --enable-libiec61883 --enable-libzmq --enable-frei0r --enable-libx264 --enable-libopencv
  libavutil      54. 31.100 / 54. 31.100
  libavcodec     56. 60.100 / 56. 60.100
  libavformat    56. 40.101 / 56. 40.101
  libavdevice    56.  4.100 / 56.  4.100
  libavfilter     5. 40.101 /  5. 40.101
  libavresample   2.  1.  0 /  2.  1.  0
  libswscale      3.  1.101 /  3.  1.101
  libswresample   1.  2.101 /  1.  2.101
  libpostproc    53.  3.100 / 53.  3.100
Input #0, mov,mp4,m4a,3gp,3g2,mj2, from '/home/horvathandras/vatic/vatic/public/videouploads/DJI_0067_30m_regi_disznoturas_regi_belvizfolt_homokmegy_20180603_napos_kalaszos_T4.avi':
  Metadata:
    major_brand     : qt  
    minor_version   : 537986816
    compatible_brands: qt  
    creation_time   : 2018-06-03 08:58:48
    location        : +46.517421+19.172557+30.000
    location-{    : +46.517421+19.172557+30.000
    comment         : DE=None, Mode=P, DSW=0001
  Duration: 00:00:26.40, start: 0.000000, bitrate: 100703 kb/s
    Stream #0:0(eng): Video: h264 (High) (avc1 / 0x31637661), yuv420p(tv, bt709), 4096x2160 [SAR 1:1 DAR 256:135], 100549 kb/s, 50 fps, 50 tbr, 50k tbn, 100 tbc (default)
    Metadata:
      creation_time   : 2018-06-03 08:58:48
      handler_name    : DJI.AVC
      encoder         : AVC encoder
    Stream #0:1(eng): Data: none (priv / 0x76697270), 146 kb/s
    Metadata:
      creation_time   : 2018-06-03 08:58:48
      handler_name    : DJI.Meta
Please use -b:a or -b:v, -b is ambiguous
[swscaler @ 0x228f820] deprecated pixel format used, make sure you did set range correctly
Output #0, image2, to '/tmp/pyvision-ffmpeg-218149283/%d.jpg':
  Metadata:
    major_brand     : qt  
    minor_version   : 537986816
    compatible_brands: qt  
    comment         : DE=None, Mode=P, DSW=0001
    location        : +46.517421+19.172557+30.000
    location-{    : +46.517421+19.172557+30.000
    encoder         : Lavf56.40.101
    Stream #0:0(eng): Video: mjpeg, yuvj420p(pc), 4096x2160 [SAR 1:1 DAR 256:135], q=2-31, 10000 kb/s, 50 fps, 50 tbn, 50 tbc (default)
    Metadata:
      creation_time   : 2018-06-03 08:58:48
      handler_name    : DJI.AVC
      encoder         : Lavc56.60.100 mjpeg
Stream mapping:
  Stream #0:0 -> #0:0 (h264 (native) -> mjpeg (native))
Press [q] to stop, [?] for help
frame=    1 fps=0.6 q=18.3 size=N/A time=00:00:00.02 bitrate=N/A    frame=    3 fps=1.3 q=22.6 size=N/A time=00:00:00.06 bitrate=N/A    frame=    5 fps=1.8 q=24.8 size=N/A time=00:00:00.10 bitrate=N/A    frame=    7 fps=2.0 q=24.8 size=N/A time=00:00:00.14 bitrate=N/A    frame=    9 fps=2.3 q=24.8 size=N/A time=00:00:00.18 bitrate=N/A    frame=   12 fps=2.6 q=24.8 size=N/A time=00:00:00.24 bitrate=N/A    frame=   14 fps=2.7 q=24.8 size=N/A time=00:00:00.28 bitrate=N/A    frame=   16 fps=2.8 q=24.8 size=N/A time=00:00:00.32 bitrate=N/A    frame=   18 fps=2.9 q=24.8 size=N/A time=00:00:00.36 bitrate=N/A    frame=   21 fps=3.0 q=24.8 size=N/A time=00:00:00.42 bitrate=N/A    frame=   24 fps=3.1 q=24.8 size=N/A time=00:00:00.48 bitrate=N/A    frame=   26 fps=3.1 q=24.8 size=N/A time=00:00:00.52 bitrate=N/A    frame=   28 fps=3.2 q=24.8 size=N/A time=00:00:00.56 bitrate=N/A    frame=   31 fps=3.2 q=24.8 size=N/A time=00:00:00.62 bitrate=N/A    frame=   34 fps=3.3 q=24.8 size=N/A time=00:00:00.68 bitrate=N/A    frame=   36 fps=3.3 q=24.8 size=N/A time=00:00:00.72 bitrate=N/A    frame=   38 fps=3.3 q=24.8 size=N/A time=00:00:00.76 bitrate=N/A    frame=   40 fps=3.3 q=24.8 size=N/A time=00:00:00.80 bitrate=N/A    frame=   43 fps=3.4 q=24.8 size=N/A time=00:00:00.86 bitrate=N/A    frame=   45 fps=3.4 q=24.8 size=N/A time=00:00:00.90 bitrate=N/A    frame=   47 fps=3.4 q=24.8 size=N/A time=00:00:00.94 bitrate=N/A    frame=   49 fps=3.4 q=24.8 size=N/A time=00:00:00.98 bitrate=N/A    frame=   51 fps=3.4 q=24.8 size=N/A time=00:00:01.02 bitrate=N/A    frame=   53 fps=3.4 q=24.8 size=N/A time=00:00:01.06 bitrate=N/A    frame=   55 fps=3.4 q=24.8 size=N/A time=00:00:01.10 bitrate=N/A    frame=   59 fps=3.5 q=24.8 size=N/A time=00:00:01.18 bitrate=N/A    frame=   61 fps=3.4 q=24.8 size=N/A time=00:00:01.22 bitrate=N/A    frame=   63 fps=3.4 q=24.8 size=N/A time=00:00:01.26 bitrate=N/A    frame=   65 fps=3.4 q=24.8 size=N/A time=00:00:01.30 bitrate=N/A    frame=   67 fps=3.4 q=24.8 size=N/A time=00:00:01.34 bitrate=N/A    frame=   70 fps=3.4 q=24.8 size=N/A time=00:00:01.40 bitrate=N/A    frame=   73 fps=3.5 q=24.8 size=N/A time=00:00:01.46 bitrate=N/A    frame=   75 fps=3.5 q=24.8 size=N/A time=00:00:01.50 bitrate=N/A    frame=   78 fps=3.5 q=24.8 size=N/A time=00:00:01.56 bitrate=N/A    frame=   81 fps=3.5 q=24.8 size=N/A time=00:00:01.62 bitrate=N/A    frame=   83 fps=3.5 q=24.8 size=N/A time=00:00:01.66 bitrate=N/A    frame=   85 fps=3.5 q=24.8 size=N/A time=00:00:01.70 bitrate=N/A    frame=   87 fps=3.5 q=24.8 size=N/A time=00:00:01.74 bitrate=N/A    frame=   90 fps=3.5 q=24.8 size=N/A time=00:00:01.80 bitrate=N/A    frame=   93 fps=3.6 q=24.8 size=N/A time=00:00:01.86 bitrate=N/A    frame=   95 fps=3.6 q=24.8 size=N/A time=00:00:01.90 bitrate=N/A    frame=   98 fps=3.6 q=24.8 size=N/A time=00:00:01.96 bitrate=N/A    frame=  100 fps=3.6 q=24.8 size=N/A time=00:00:02.00 bitrate=N/A    frame=  102 fps=3.6 q=24.8 size=N/A time=00:00:02.04 bitrate=N/A    frame=  104 fps=3.6 q=24.8 size=N/A time=00:00:02.08 bitrate=N/A    frame=  107 fps=3.6 q=24.8 size=N/A time=00:00:02.14 bitrate=N/A    frame=  109 fps=3.6 q=24.8 size=N/A time=00:00:02.18 bitrate=N/A    frame=  112 fps=3.6 q=24.8 size=N/A time=00:00:02.24 bitrate=N/A    frame=  115 fps=3.7 q=24.8 size=N/A time=00:00:02.30 bitrate=N/A    frame=  117 fps=3.7 q=24.8 size=N/A time=00:00:02.34 bitrate=N/A    frame=  119 fps=3.6 q=24.8 size=N/A time=00:00:02.38 bitrate=N/A    frame=  121 fps=3.6 q=24.8 size=N/A time=00:00:02.42 bitrate=N/A    frame=  123 fps=3.6 q=24.8 size=N/A time=00:00:02.46 bitrate=N/A    frame=  125 fps=3.6 q=24.8 size=N/A time=00:00:02.50 bitrate=N/A    frame=  127 fps=3.6 q=24.8 size=N/A time=00:00:02.54 bitrate=N/A    frame=  130 fps=3.6 q=24.8 size=N/A time=00:00:02.60 bitrate=N/A    frame=  133 fps=3.6 q=24.8 size=N/A time=00:00:02.66 bitrate=N/A    frame=  135 fps=3.6 q=24.8 size=N/A time=00:00:02.70 bitrate=N/A    frame=  137 fps=3.6 q=24.8 size=N/A time=00:00:02.74 bitrate=N/A    frame=  139 fps=3.6 q=24.8 size=N/A time=00:00:02.78 bitrate=N/A    frame=  141 fps=3.6 q=24.8 size=N/A time=00:00:02.82 bitrate=N/A    frame=  143 fps=3.6 q=24.8 size=N/A time=00:00:02.86 bitrate=N/A    frame=  145 fps=3.6 q=24.8 size=N/A time=00:00:02.90 bitrate=N/A    frame=  147 fps=3.6 q=24.8 size=N/A time=00:00:02.94 bitrate=N/A    frame=  149 fps=3.6 q=24.8 size=N/A time=00:00:02.98 bitrate=N/A    frame=  152 fps=3.6 q=24.8 size=N/A time=00:00:03.04 bitrate=N/A    frame=  155 fps=3.7 q=24.8 size=N/A time=00:00:03.10 bitrate=N/A    frame=  157 fps=3.7 q=24.8 size=N/A time=00:00:03.14 bitrate=N/A    frame=  160 fps=3.7 q=24.8 size=N/A time=00:00:03.20 bitrate=N/A    frame=  163 fps=3.7 q=24.8 size=N/A time=00:00:03.26 bitrate=N/A    frame=  165 fps=3.7 q=24.8 size=N/A time=00:00:03.30 bitrate=N/A    frame=  168 fps=3.7 q=24.8 size=N/A time=00:00:03.36 bitrate=N/A    frame=  171 fps=3.7 q=24.8 size=N/A time=00:00:03.42 bitrate=N/A    frame=  173 fps=3.7 q=24.8 size=N/A time=00:00:03.46 bitrate=N/A    frame=  175 fps=3.7 q=24.8 size=N/A time=00:00:03.50 bitrate=N/A    frame=  177 fps=3.7 q=24.8 size=N/A time=00:00:03.54 bitrate=N/A    frame=  180 fps=3.7 q=24.8 size=N/A time=00:00:03.60 bitrate=N/A    frame=  182 fps=3.7 q=24.8 size=N/A time=00:00:03.64 bitrate=N/A    frame=  185 fps=3.7 q=24.8 size=N/A time=00:00:03.70 bitrate=N/A    frame=  188 fps=3.7 q=24.8 size=N/A time=00:00:03.76 bitrate=N/A    frame=  190 fps=3.7 q=24.8 size=N/A time=00:00:03.80 bitrate=N/A    frame=  193 fps=3.7 q=24.8 size=N/A time=00:00:03.86 bitrate=N/A    frame=  195 fps=3.7 q=24.8 size=N/A time=00:00:03.90 bitrate=N/A    frame=  197 fps=3.7 q=24.8 size=N/A time=00:00:03.94 bitrate=N/A    frame=  200 fps=3.7 q=24.8 size=N/A time=00:00:04.00 bitrate=N/A    frame=  202 fps=3.7 q=24.8 size=N/A time=00:00:04.04 bitrate=N/A    frame=  204 fps=3.7 q=24.8 size=N/A time=00:00:04.08 bitrate=N/A    frame=  206 fps=3.7 q=24.8 size=N/A time=00:00:04.12 bitrate=N/A    frame=  208 fps=3.7 q=24.8 size=N/A time=00:00:04.16 bitrate=N/A    frame=  210 fps=3.7 q=24.8 size=N/A time=00:00:04.20 bitrate=N/A    frame=  213 fps=3.7 q=24.8 size=N/A time=00:00:04.26 bitrate=N/A    frame=  215 fps=3.7 q=24.8 size=N/A time=00:00:04.30 bitrate=N/A    frame=  217 fps=3.7 q=24.8 size=N/A time=00:00:04.34 bitrate=N/A    frame=  220 fps=3.7 q=24.8 size=N/A time=00:00:04.40 bitrate=N/A    frame=  222 fps=3.7 q=24.8 size=N/A time=00:00:04.44 bitrate=N/A    frame=  224 fps=3.7 q=24.8 size=N/A time=00:00:04.48 bitrate=N/A    frame=  227 fps=3.7 q=24.8 size=N/A time=00:00:04.54 bitrate=N/A    frame=  229 fps=3.7 q=24.8 size=N/A time=00:00:04.58 bitrate=N/A    frame=  232 fps=3.7 q=24.8 size=N/A time=00:00:04.64 bitrate=N/A    frame=  234 fps=3.7 q=24.8 size=N/A time=00:00:04.68 bitrate=N/A    frame=  236 fps=3.7 q=24.8 size=N/A time=00:00:04.72 bitrate=N/A    frame=  238 fps=3.7 q=24.8 size=N/A time=00:00:04.76 bitrate=N/A    frame=  240 fps=3.7 q=24.8 size=N/A time=00:00:04.80 bitrate=N/A    frame=  243 fps=3.7 q=24.8 size=N/A time=00:00:04.86 bitrate=N/A    frame=  245 fps=3.7 q=24.8 size=N/A time=00:00:04.90 bitrate=N/A    frame=  247 fps=3.7 q=24.8 size=N/A time=00:00:04.94 bitrate=N/A    frame=  249 fps=3.7 q=24.8 size=N/A time=00:00:04.98 bitrate=N/A    frame=  252 fps=3.7 q=24.8 size=N/A time=00:00:05.04 bitrate=N/A    frame=  255 fps=3.7 q=24.8 size=N/A time=00:00:05.10 bitrate=N/A    frame=  257 fps=3.7 q=24.8 size=N/A time=00:00:05.14 bitrate=N/A    frame=  259 fps=3.7 q=24.8 size=N/A time=00:00:05.18 bitrate=N/A    frame=  261 fps=3.7 q=24.8 size=N/A time=00:00:05.22 bitrate=N/A    frame=  264 fps=3.7 q=24.8 size=N/A time=00:00:05.28 bitrate=N/A    frame=  267 fps=3.7 q=24.8 size=N/A time=00:00:05.34 bitrate=N/A    frame=  269 fps=3.7 q=24.8 size=N/A time=00:00:05.38 bitrate=N/A    frame=  271 fps=3.7 q=24.8 size=N/A time=00:00:05.42 bitrate=N/A    frame=  273 fps=3.7 q=24.8 size=N/A time=00:00:05.46 bitrate=N/A    frame=  275 fps=3.7 q=24.8 size=N/A time=00:00:05.50 bitrate=N/A    frame=  277 fps=3.7 q=24.8 size=N/A time=00:00:05.54 bitrate=N/A    frame=  280 fps=3.7 q=24.8 size=N/A time=00:00:05.60 bitrate=N/A    frame=  282 fps=3.7 q=24.8 size=N/A time=00:00:05.64 bitrate=N/A    frame=  284 fps=3.7 q=24.8 size=N/A time=00:00:05.68 bitrate=N/A    frame=  286 fps=3.6 q=24.8 size=N/A time=00:00:05.72 bitrate=N/A    frame=  288 fps=3.6 q=24.8 size=N/A time=00:00:05.76 bitrate=N/A    frame=  291 fps=3.6 q=24.8 size=N/A time=00:00:05.82 bitrate=N/A    frame=  293 fps=3.6 q=24.8 size=N/A time=00:00:05.86 bitrate=N/A    frame=  295 fps=3.6 q=24.8 size=N/A time=00:00:05.90 bitrate=N/A    frame=  298 fps=3.6 q=24.8 size=N/A time=00:00:05.96 bitrate=N/A    frame=  300 fps=3.7 q=24.8 size=N/A time=00:00:06.00 bitrate=N/A    frame=  302 fps=3.7 q=24.8 size=N/A time=00:00:06.04 bitrate=N/A    frame=  304 fps=3.7 q=24.8 size=N/A time=00:00:06.08 bitrate=N/A    frame=  306 fps=3.7 q=24.8 size=N/A time=00:00:06.12 bitrate=N/A    frame=  308 fps=3.7 q=24.8 size=N/A time=00:00:06.16 bitrate=N/A    frame=  310 fps=3.7 q=24.8 size=N/A time=00:00:06.20 bitrate=N/A    frame=  312 fps=3.6 q=24.8 size=N/A time=00:00:06.24 bitrate=N/A    frame=  314 fps=3.6 q=24.8 size=N/A time=00:00:06.28 bitrate=N/A    frame=  316 fps=3.6 q=24.8 size=N/A time=00:00:06.32 bitrate=N/A    frame=  319 fps=3.7 q=24.8 size=N/A time=00:00:06.38 bitrate=N/A    frame=  321 fps=3.7 q=24.8 size=N/A time=00:00:06.42 bitrate=N/A    frame=  323 fps=3.6 q=24.8 size=N/A time=00:00:06.46 bitrate=N/A    frame=  325 fps=3.6 q=24.8 size=N/A time=00:00:06.50 bitrate=N/A    frame=  328 fps=3.7 q=24.8 size=N/A time=00:00:06.56 bitrate=N/A    frame=  331 fps=3.7 q=24.8 size=N/A time=00:00:06.62 bitrate=N/A    frame=  334 fps=3.7 q=24.8 size=N/A time=00:00:06.68 bitrate=N/A    frame=  336 fps=3.7 q=24.8 size=N/A time=00:00:06.72 bitrate=N/A    frame=  339 fps=3.7 q=24.8 size=N/A time=00:00:06.78 bitrate=N/A    frame=  341 fps=3.7 q=24.8 size=N/A time=00:00:06.82 bitrate=N/A    frame=  343 fps=3.7 q=24.8 size=N/A time=00:00:06.86 bitrate=N/A    frame=  345 fps=3.7 q=24.8 size=N/A time=00:00:06.90 bitrate=N/A    frame=  347 fps=3.7 q=24.8 size=N/A time=00:00:06.94 bitrate=N/A    frame=  349 fps=3.7 q=24.8 size=N/A time=00:00:06.98 bitrate=N/A    frame=  352 fps=3.7 q=24.8 size=N/A time=00:00:07.04 bitrate=N/A    frame=  354 fps=3.7 q=24.8 size=N/A time=00:00:07.08 bitrate=N/A    frame=  356 fps=3.7 q=24.8 size=N/A time=00:00:07.12 bitrate=N/A    frame=  358 fps=3.7 q=24.8 size=N/A time=00:00:07.16 bitrate=N/A    frame=  360 fps=3.7 q=24.8 size=N/A time=00:00:07.20 bitrate=N/A    frame=  362 fps=3.7 q=24.8 size=N/A time=00:00:07.24 bitrate=N/A    frame=  364 fps=3.7 q=24.8 size=N/A time=00:00:07.28 bitrate=N/A    frame=  366 fps=3.7 q=24.8 size=N/A time=00:00:07.32 bitrate=N/A    frame=  368 fps=3.7 q=24.8 size=N/A time=00:00:07.36 bitrate=N/A    frame=  370 fps=3.6 q=24.8 size=N/A time=00:00:07.40 bitrate=N/A    frame=  373 fps=3.6 q=24.8 size=N/A time=00:00:07.46 bitrate=N/A    frame=  375 fps=3.7 q=24.8 size=N/A time=00:00:07.50 bitrate=N/A    frame=  377 fps=3.7 q=24.8 size=N/A time=00:00:07.54 bitrate=N/A    frame=  379 fps=3.6 q=24.8 size=N/A time=00:00:07.58 bitrate=N/A    frame=  382 fps=3.7 q=24.8 size=N/A time=00:00:07.64 bitrate=N/A    frame=  385 fps=3.7 q=24.8 size=N/A time=00:00:07.70 bitrate=N/A    frame=  388 fps=3.7 q=24.8 size=N/A time=00:00:07.76 bitrate=N/A    frame=  390 fps=3.7 q=24.8 size=N/A time=00:00:07.80 bitrate=N/A    frame=  393 fps=3.7 q=24.8 size=N/A time=00:00:07.86 bitrate=N/A    frame=  395 fps=3.7 q=24.8 size=N/A time=00:00:07.90 bitrate=N/A    frame=  398 fps=3.7 q=24.8 size=N/A time=00:00:07.96 bitrate=N/A    frame=  401 fps=3.7 q=24.8 size=N/A time=00:00:08.02 bitrate=N/A    frame=  404 fps=3.7 q=24.8 size=N/A time=00:00:08.08 bitrate=N/A    frame=  406 fps=3.7 q=24.8 size=N/A time=00:00:08.12 bitrate=N/A    frame=  409 fps=3.7 q=24.8 size=N/A time=00:00:08.18 bitrate=N/A    frame=  411 fps=3.7 q=24.8 size=N/A time=00:00:08.22 bitrate=N/A    frame=  413 fps=3.7 q=24.8 size=N/A time=00:00:08.26 bitrate=N/A    frame=  415 fps=3.7 q=24.8 size=N/A time=00:00:08.30 bitrate=N/A    frame=  417 fps=3.7 q=24.8 size=N/A time=00:00:08.34 bitrate=N/A    frame=  419 fps=3.7 q=24.8 size=N/A time=00:00:08.38 bitrate=N/A    frame=  421 fps=3.7 q=24.8 size=N/A time=00:00:08.42 bitrate=N/A    frame=  423 fps=3.7 q=24.8 size=N/A time=00:00:08.46 bitrate=N/A    frame=  425 fps=3.7 q=24.8 size=N/A time=00:00:08.50 bitrate=N/A    frame=  427 fps=3.7 q=24.8 size=N/A time=00:00:08.54 bitrate=N/A    frame=  429 fps=3.7 q=24.8 size=N/A time=00:00:08.58 bitrate=N/A    frame=  431 fps=3.7 q=24.8 size=N/A time=00:00:08.62 bitrate=N/A    frame=  433 fps=3.7 q=24.8 size=N/A time=00:00:08.66 bitrate=N/A    frame=  436 fps=3.7 q=24.8 size=N/A time=00:00:08.72 bitrate=N/A    frame=  438 fps=3.7 q=24.8 size=N/A time=00:00:08.76 bitrate=N/A    frame=  440 fps=3.7 q=24.8 size=N/A time=00:00:08.80 bitrate=N/A    frame=  442 fps=3.7 q=24.8 size=N/A time=00:00:08.84 bitrate=N/A    frame=  444 fps=3.7 q=24.8 size=N/A time=00:00:08.88 bitrate=N/A    frame=  446 fps=3.7 q=24.8 size=N/A time=00:00:08.92 bitrate=N/A    frame=  448 fps=3.7 q=24.8 size=N/A time=00:00:08.96 bitrate=N/A    frame=  450 fps=3.7 q=24.8 size=N/A time=00:00:09.00 bitrate=N/A    frame=  452 fps=3.7 q=24.8 size=N/A time=00:00:09.04 bitrate=N/A    frame=  454 fps=3.7 q=24.8 size=N/A time=00:00:09.08 bitrate=N/A    frame=  456 fps=3.7 q=24.8 size=N/A time=00:00:09.12 bitrate=N/A    frame=  458 fps=3.7 q=24.8 size=N/A time=00:00:09.16 bitrate=N/A    frame=  460 fps=3.7 q=24.8 size=N/A time=00:00:09.20 bitrate=N/A    frame=  463 fps=3.7 q=24.8 size=N/A time=00:00:09.26 bitrate=N/A    frame=  465 fps=3.7 q=24.8 size=N/A time=00:00:09.30 bitrate=N/A    frame=  468 fps=3.7 q=24.8 size=N/A time=00:00:09.36 bitrate=N/A    frame=  470 fps=3.7 q=24.8 size=N/A time=00:00:09.40 bitrate=N/A    frame=  472 fps=3.7 q=24.8 size=N/A time=00:00:09.44 bitrate=N/A    frame=  474 fps=3.7 q=24.8 size=N/A time=00:00:09.48 bitrate=N/A    frame=  476 fps=3.7 q=24.8 size=N/A time=00:00:09.52 bitrate=N/A    frame=  478 fps=3.7 q=24.8 size=N/A time=00:00:09.56 bitrate=N/A    frame=  480 fps=3.7 q=24.8 size=N/A time=00:00:09.60 bitrate=N/A    frame=  482 fps=3.7 q=24.8 size=N/A time=00:00:09.64 bitrate=N/A    frame=  484 fps=3.7 q=24.8 size=N/A time=00:00:09.68 bitrate=N/A    frame=  486 fps=3.7 q=24.8 size=N/A time=00:00:09.72 bitrate=N/A    frame=  489 fps=3.7 q=24.8 size=N/A time=00:00:09.78 bitrate=N/A    frame=  491 fps=3.7 q=24.8 size=N/A time=00:00:09.82 bitrate=N/A    frame=  494 fps=3.7 q=24.8 size=N/A time=00:00:09.88 bitrate=N/A    frame=  497 fps=3.7 q=24.8 size=N/A time=00:00:09.94 bitrate=N/A    frame=  500 fps=3.7 q=24.8 size=N/A time=00:00:10.00 bitrate=N/A    frame=  502 fps=3.7 q=24.8 size=N/A time=00:00:10.04 bitrate=N/A    frame=  504 fps=3.7 q=24.8 size=N/A time=00:00:10.08 bitrate=N/A    frame=  507 fps=3.7 q=24.8 size=N/A time=00:00:10.14 bitrate=N/A    frame=  509 fps=3.7 q=24.8 size=N/A time=00:00:10.18 bitrate=N/A    frame=  512 fps=3.7 q=24.8 size=N/A time=00:00:10.24 bitrate=N/A    frame=  514 fps=3.7 q=24.8 size=N/A time=00:00:10.28 bitrate=N/A    frame=  516 fps=3.7 q=24.8 size=N/A time=00:00:10.32 bitrate=N/A    frame=  519 fps=3.7 q=24.8 size=N/A time=00:00:10.38 bitrate=N/A    frame=  521 fps=3.7 q=24.8 size=N/A time=00:00:10.42 bitrate=N/A    frame=  524 fps=3.7 q=24.8 size=N/A time=00:00:10.48 bitrate=N/A    frame=  526 fps=3.7 q=24.8 size=N/A time=00:00:10.52 bitrate=N/A    frame=  529 fps=3.7 q=24.8 size=N/A time=00:00:10.58 bitrate=N/A    frame=  531 fps=3.7 q=24.8 size=N/A time=00:00:10.62 bitrate=N/A    frame=  533 fps=3.7 q=24.8 size=N/A time=00:00:10.66 bitrate=N/A    frame=  535 fps=3.7 q=24.8 size=N/A time=00:00:10.70 bitrate=N/A    frame=  537 fps=3.7 q=24.8 size=N/A time=00:00:10.74 bitrate=N/A    frame=  539 fps=3.7 q=24.8 size=N/A time=00:00:10.78 bitrate=N/A    frame=  541 fps=3.7 q=24.8 size=N/A time=00:00:10.82 bitrate=N/A    frame=  544 fps=3.7 q=24.8 size=N/A time=00:00:10.88 bitrate=N/A    frame=  546 fps=3.7 q=24.8 size=N/A time=00:00:10.92 bitrate=N/A    frame=  549 fps=3.7 q=24.8 size=N/A time=00:00:10.98 bitrate=N/A    frame=  552 fps=3.7 q=24.8 size=N/A time=00:00:11.04 bitrate=N/A    frame=  555 fps=3.7 q=24.8 size=N/A time=00:00:11.10 bitrate=N/A    frame=  557 fps=3.7 q=24.8 size=N/A time=00:00:11.14 bitrate=N/A    frame=  559 fps=3.7 q=24.8 size=N/A time=00:00:11.18 bitrate=N/A    frame=  561 fps=3.7 q=24.8 size=N/A time=00:00:11.22 bitrate=N/A    frame=  563 fps=3.7 q=24.8 size=N/A time=00:00:11.26 bitrate=N/A    frame=  565 fps=3.7 q=24.8 size=N/A time=00:00:11.30 bitrate=N/A    frame=  568 fps=3.7 q=24.8 size=N/A time=00:00:11.36 bitrate=N/A    frame=  570 fps=3.7 q=24.8 size=N/A time=00:00:11.40 bitrate=N/A    frame=  573 fps=3.7 q=24.8 size=N/A time=00:00:11.46 bitrate=N/A    frame=  575 fps=3.7 q=24.8 size=N/A time=00:00:11.50 bitrate=N/A    frame=  577 fps=3.7 q=24.8 size=N/A time=00:00:11.54 bitrate=N/A    frame=  579 fps=3.7 q=24.8 size=N/A time=00:00:11.58 bitrate=N/A    frame=  582 fps=3.7 q=24.8 size=N/A time=00:00:11.64 bitrate=N/A    frame=  585 fps=3.7 q=24.8 size=N/A time=00:00:11.70 bitrate=N/A    frame=  587 fps=3.7 q=24.8 size=N/A time=00:00:11.74 bitrate=N/A    frame=  589 fps=3.7 q=24.8 size=N/A time=00:00:11.78 bitrate=N/A    frame=  591 fps=3.7 q=24.8 size=N/A time=00:00:11.82 bitrate=N/A    frame=  593 fps=3.7 q=24.8 size=N/A time=00:00:11.86 bitrate=N/A    frame=  596 fps=3.7 q=24.8 size=N/A time=00:00:11.92 bitrate=N/A    frame=  598 fps=3.7 q=24.8 size=N/A time=00:00:11.96 bitrate=N/A    frame=  600 fps=3.7 q=24.8 size=N/A time=00:00:12.00 bitrate=N/A    frame=  602 fps=3.7 q=24.8 size=N/A time=00:00:12.04 bitrate=N/A    frame=  604 fps=3.7 q=24.8 size=N/A time=00:00:12.08 bitrate=N/A    frame=  606 fps=3.7 q=24.8 size=N/A time=00:00:12.12 bitrate=N/A    frame=  608 fps=3.7 q=24.8 size=N/A time=00:00:12.16 bitrate=N/A    frame=  610 fps=3.7 q=24.8 size=N/A time=00:00:12.20 bitrate=N/A    frame=  612 fps=3.7 q=24.8 size=N/A time=00:00:12.24 bitrate=N/A    frame=  615 fps=3.7 q=24.8 size=N/A time=00:00:12.30 bitrate=N/A    frame=  617 fps=3.7 q=24.8 size=N/A time=00:00:12.34 bitrate=N/A    frame=  619 fps=3.7 q=24.8 size=N/A time=00:00:12.38 bitrate=N/A    frame=  621 fps=3.7 q=24.8 size=N/A time=00:00:12.42 bitrate=N/A    frame=  624 fps=3.7 q=24.8 size=N/A time=00:00:12.48 bitrate=N/A    frame=  626 fps=3.7 q=24.8 size=N/A time=00:00:12.52 bitrate=N/A    frame=  628 fps=3.7 q=24.8 size=N/A time=00:00:12.56 bitrate=N/A    frame=  631 fps=3.7 q=24.8 size=N/A time=00:00:12.62 bitrate=N/A    frame=  633 fps=3.7 q=24.8 size=N/A time=00:00:12.66 bitrate=N/A    frame=  635 fps=3.7 q=24.8 size=N/A time=00:00:12.70 bitrate=N/A    frame=  637 fps=3.7 q=24.8 size=N/A time=00:00:12.74 bitrate=N/A    frame=  639 fps=3.7 q=24.8 size=N/A time=00:00:12.78 bitrate=N/A    frame=  641 fps=3.7 q=24.8 size=N/A time=00:00:12.82 bitrate=N/A    frame=  643 fps=3.7 q=24.8 size=N/A time=00:00:12.86 bitrate=N/A    frame=  645 fps=3.7 q=24.8 size=N/A time=00:00:12.90 bitrate=N/A    frame=  647 fps=3.7 q=24.8 size=N/A time=00:00:12.94 bitrate=N/A    frame=  649 fps=3.7 q=24.8 size=N/A time=00:00:12.98 bitrate=N/A    frame=  651 fps=3.7 q=24.8 size=N/A time=00:00:13.02 bitrate=N/A    frame=  653 fps=3.7 q=24.8 size=N/A time=00:00:13.06 bitrate=N/A    frame=  655 fps=3.7 q=24.8 size=N/A time=00:00:13.10 bitrate=N/A    frame=  657 fps=3.7 q=24.8 size=N/A time=00:00:13.14 bitrate=N/A    frame=  659 fps=3.7 q=24.8 size=N/A time=00:00:13.18 bitrate=N/A    frame=  661 fps=3.7 q=24.8 size=N/A time=00:00:13.22 bitrate=N/A    frame=  663 fps=3.7 q=24.8 size=N/A time=00:00:13.26 bitrate=N/A    frame=  665 fps=3.7 q=24.8 size=N/A time=00:00:13.30 bitrate=N/A    frame=  669 fps=3.7 q=24.8 size=N/A time=00:00:13.38 bitrate=N/A    frame=  672 fps=3.7 q=24.8 size=N/A time=00:00:13.44 bitrate=N/A    frame=  674 fps=3.7 q=24.8 size=N/A time=00:00:13.48 bitrate=N/A    frame=  676 fps=3.7 q=24.8 size=N/A time=00:00:13.52 bitrate=N/A    frame=  678 fps=3.7 q=24.8 size=N/A time=00:00:13.56 bitrate=N/A    frame=  680 fps=3.7 q=24.8 size=N/A time=00:00:13.60 bitrate=N/A    frame=  682 fps=3.7 q=24.8 size=N/A time=00:00:13.64 bitrate=N/A    frame=  684 fps=3.7 q=24.8 size=N/A time=00:00:13.68 bitrate=N/A    frame=  686 fps=3.7 q=24.8 size=N/A time=00:00:13.72 bitrate=N/A    frame=  688 fps=3.7 q=24.8 size=N/A time=00:00:13.76 bitrate=N/A    frame=  690 fps=3.7 q=24.8 size=N/A time=00:00:13.80 bitrate=N/A    frame=  692 fps=3.7 q=24.8 size=N/A time=00:00:13.84 bitrate=N/A    frame=  695 fps=3.7 q=24.8 size=N/A time=00:00:13.90 bitrate=N/A    frame=  698 fps=3.7 q=24.8 size=N/A time=00:00:13.96 bitrate=N/A    frame=  700 fps=3.7 q=24.8 size=N/A time=00:00:14.00 bitrate=N/A    frame=  702 fps=3.7 q=24.8 size=N/A time=00:00:14.04 bitrate=N/A    frame=  704 fps=3.7 q=24.8 size=N/A time=00:00:14.08 bitrate=N/A    frame=  706 fps=3.7 q=24.8 size=N/A time=00:00:14.12 bitrate=N/A    frame=  710 fps=3.7 q=24.8 size=N/A time=00:00:14.20 bitrate=N/A    frame=  713 fps=3.7 q=24.8 size=N/A time=00:00:14.26 bitrate=N/A    frame=  715 fps=3.7 q=24.8 size=N/A time=00:00:14.30 bitrate=N/A    frame=  717 fps=3.7 q=24.8 size=N/A time=00:00:14.34 bitrate=N/A    frame=  719 fps=3.7 q=24.8 size=N/A time=00:00:14.38 bitrate=N/A    frame=  722 fps=3.7 q=24.8 size=N/A time=00:00:14.44 bitrate=N/A    frame=  724 fps=3.7 q=24.8 size=N/A time=00:00:14.48 bitrate=N/A    frame=  726 fps=3.7 q=24.8 size=N/A time=00:00:14.52 bitrate=N/A    frame=  728 fps=3.7 q=24.8 size=N/A time=00:00:14.56 bitrate=N/A    frame=  731 fps=3.7 q=24.8 size=N/A time=00:00:14.62 bitrate=N/A    frame=  734 fps=3.7 q=24.8 size=N/A time=00:00:14.68 bitrate=N/A    frame=  738 fps=3.7 q=24.8 size=N/A time=00:00:14.76 bitrate=N/A    frame=  740 fps=3.7 q=24.8 size=N/A time=00:00:14.80 bitrate=N/A    frame=  742 fps=3.7 q=24.8 size=N/A time=00:00:14.84 bitrate=N/A    frame=  744 fps=3.7 q=24.8 size=N/A time=00:00:14.88 bitrate=N/A    frame=  746 fps=3.7 q=24.8 size=N/A time=00:00:14.92 bitrate=N/A    frame=  748 fps=3.7 q=24.8 size=N/A time=00:00:14.96 bitrate=N/A    frame=  751 fps=3.7 q=24.8 size=N/A time=00:00:15.02 bitrate=N/A    frame=  753 fps=3.7 q=24.8 size=N/A time=00:00:15.06 bitrate=N/A    frame=  756 fps=3.7 q=24.8 size=N/A time=00:00:15.12 bitrate=N/A    frame=  759 fps=3.7 q=24.8 size=N/A time=00:00:15.18 bitrate=N/A    frame=  762 fps=3.8 q=24.8 size=N/A time=00:00:15.24 bitrate=N/A    frame=  764 fps=3.8 q=24.8 size=N/A time=00:00:15.28 bitrate=N/A    frame=  766 fps=3.7 q=24.8 size=N/A time=00:00:15.32 bitrate=N/A    frame=  768 fps=3.7 q=24.8 size=N/A time=00:00:15.36 bitrate=N/A    frame=  771 fps=3.7 q=24.8 size=N/A time=00:00:15.42 bitrate=N/A    frame=  773 fps=3.7 q=24.8 size=N/A time=00:00:15.46 bitrate=N/A    frame=  776 fps=3.7 q=24.8 size=N/A time=00:00:15.52 bitrate=N/A    frame=  778 fps=3.7 q=24.8 size=N/A time=00:00:15.56 bitrate=N/A    frame=  780 fps=3.7 q=24.8 size=N/A time=00:00:15.60 bitrate=N/A    frame=  782 fps=3.7 q=24.8 size=N/A time=00:00:15.64 bitrate=N/A    frame=  784 fps=3.7 q=24.8 size=N/A time=00:00:15.68 bitrate=N/A    frame=  786 fps=3.7 q=24.8 size=N/A time=00:00:15.72 bitrate=N/A    frame=  789 fps=3.8 q=24.8 size=N/A time=00:00:15.78 bitrate=N/A    frame=  791 fps=3.8 q=24.8 size=N/A time=00:00:15.82 bitrate=N/A    frame=  794 fps=3.8 q=24.8 size=N/A time=00:00:15.88 bitrate=N/A    frame=  797 fps=3.8 q=24.8 size=N/A time=00:00:15.94 bitrate=N/A    frame=  800 fps=3.8 q=24.8 size=N/A time=00:00:16.00 bitrate=N/A    frame=  802 fps=3.8 q=24.8 size=N/A time=00:00:16.04 bitrate=N/A    frame=  804 fps=3.8 q=24.8 size=N/A time=00:00:16.08 bitrate=N/A    frame=  806 fps=3.8 q=24.8 size=N/A time=00:00:16.12 bitrate=N/A    frame=  808 fps=3.8 q=24.8 size=N/A time=00:00:16.16 bitrate=N/A    frame=  810 fps=3.8 q=24.8 size=N/A time=00:00:16.20 bitrate=N/A    frame=  812 fps=3.8 q=24.8 size=N/A time=00:00:16.24 bitrate=N/A    frame=  815 fps=3.8 q=24.8 size=N/A time=00:00:16.30 bitrate=N/A    frame=  817 fps=3.8 q=24.8 size=N/A time=00:00:16.34 bitrate=N/A    frame=  819 fps=3.8 q=24.8 size=N/A time=00:00:16.38 bitrate=N/A    frame=  822 fps=3.8 q=24.8 size=N/A time=00:00:16.44 bitrate=N/A    frame=  824 fps=3.8 q=24.8 size=N/A time=00:00:16.48 bitrate=N/A    frame=  826 fps=3.8 q=24.8 size=N/A time=00:00:16.52 bitrate=N/A    frame=  828 fps=3.8 q=24.8 size=N/A time=00:00:16.56 bitrate=N/A    frame=  830 fps=3.8 q=24.8 size=N/A time=00:00:16.60 bitrate=N/A    frame=  832 fps=3.8 q=24.8 size=N/A time=00:00:16.64 bitrate=N/A    frame=  834 fps=3.8 q=24.8 size=N/A time=00:00:16.68 bitrate=N/A    frame=  836 fps=3.8 q=24.8 size=N/A time=00:00:16.72 bitrate=N/A    frame=  838 fps=3.8 q=24.8 size=N/A time=00:00:16.76 bitrate=N/A    frame=  840 fps=3.8 q=24.8 size=N/A time=00:00:16.80 bitrate=N/A    frame=  842 fps=3.8 q=24.8 size=N/A time=00:00:16.84 bitrate=N/A    frame=  844 fps=3.8 q=24.8 size=N/A time=00:00:16.88 bitrate=N/A    frame=  846 fps=3.8 q=24.8 size=N/A time=00:00:16.92 bitrate=N/A    frame=  848 fps=3.8 q=24.8 size=N/A time=00:00:16.96 bitrate=N/A    frame=  851 fps=3.8 q=24.8 size=N/A time=00:00:17.02 bitrate=N/A    frame=  853 fps=3.8 q=24.8 size=N/A time=00:00:17.06 bitrate=N/A    frame=  855 fps=3.8 q=24.8 size=N/A time=00:00:17.10 bitrate=N/A    frame=  858 fps=3.8 q=24.8 size=N/A time=00:00:17.16 bitrate=N/A    frame=  860 fps=3.8 q=24.8 size=N/A time=00:00:17.20 bitrate=N/A    frame=  863 fps=3.8 q=24.8 size=N/A time=00:00:17.26 bitrate=N/A    frame=  866 fps=3.8 q=24.8 size=N/A time=00:00:17.32 bitrate=N/A    frame=  868 fps=3.8 q=24.8 size=N/A time=00:00:17.36 bitrate=N/A    frame=  870 fps=3.8 q=24.8 size=N/A time=00:00:17.40 bitrate=N/A    frame=  873 fps=3.8 q=24.8 size=N/A time=00:00:17.46 bitrate=N/A    frame=  876 fps=3.8 q=24.8 size=N/A time=00:00:17.52 bitrate=N/A    frame=  879 fps=3.8 q=24.8 size=N/A time=00:00:17.58 bitrate=N/A    frame=  881 fps=3.8 q=24.8 size=N/A time=00:00:17.62 bitrate=N/A    frame=  883 fps=3.8 q=24.8 size=N/A time=00:00:17.66 bitrate=N/A    frame=  885 fps=3.8 q=24.8 size=N/A time=00:00:17.70 bitrate=N/A    frame=  888 fps=3.8 q=24.8 size=N/A time=00:00:17.76 bitrate=N/A    frame=  891 fps=3.8 q=24.8 size=N/A time=00:00:17.82 bitrate=N/A    frame=  893 fps=3.8 q=24.8 size=N/A time=00:00:17.86 bitrate=N/A    frame=  895 fps=3.8 q=24.8 size=N/A time=00:00:17.90 bitrate=N/A    frame=  898 fps=3.8 q=24.8 size=N/A time=00:00:17.96 bitrate=N/A    frame=  900 fps=3.8 q=24.8 size=N/A time=00:00:18.00 bitrate=N/A    frame=  902 fps=3.8 q=24.8 size=N/A time=00:00:18.04 bitrate=N/A    frame=  905 fps=3.8 q=24.8 size=N/A time=00:00:18.10 bitrate=N/A    frame=  907 fps=3.8 q=24.8 size=N/A time=00:00:18.14 bitrate=N/A    frame=  910 fps=3.8 q=24.8 size=N/A time=00:00:18.20 bitrate=N/A    frame=  913 fps=3.8 q=24.8 size=N/A time=00:00:18.26 bitrate=N/A    frame=  915 fps=3.8 q=24.8 size=N/A time=00:00:18.30 bitrate=N/A    frame=  917 fps=3.8 q=24.8 size=N/A time=00:00:18.34 bitrate=N/A    frame=  919 fps=3.8 q=24.8 size=N/A time=00:00:18.38 bitrate=N/A    frame=  921 fps=3.8 q=24.8 size=N/A time=00:00:18.42 bitrate=N/A    frame=  923 fps=3.8 q=24.8 size=N/A time=00:00:18.46 bitrate=N/A    frame=  925 fps=3.8 q=24.8 size=N/A time=00:00:18.50 bitrate=N/A    frame=  927 fps=3.8 q=24.8 size=N/A time=00:00:18.54 bitrate=N/A    frame=  930 fps=3.8 q=24.8 size=N/A time=00:00:18.60 bitrate=N/A    frame=  933 fps=3.8 q=24.8 size=N/A time=00:00:18.66 bitrate=N/A    frame=  936 fps=3.8 q=24.8 size=N/A time=00:00:18.72 bitrate=N/A    frame=  939 fps=3.8 q=24.8 size=N/A time=00:00:18.78 bitrate=N/A    frame=  941 fps=3.8 q=24.8 size=N/A time=00:00:18.82 bitrate=N/A    frame=  944 fps=3.8 q=24.8 size=N/A time=00:00:18.88 bitrate=N/A    frame=  947 fps=3.8 q=24.8 size=N/A time=00:00:18.94 bitrate=N/A    frame=  950 fps=3.8 q=24.8 size=N/A time=00:00:19.00 bitrate=N/A    frame=  952 fps=3.8 q=24.8 size=N/A time=00:00:19.04 bitrate=N/A    frame=  955 fps=3.8 q=24.8 size=N/A time=00:00:19.10 bitrate=N/A    frame=  958 fps=3.8 q=24.8 size=N/A time=00:00:19.16 bitrate=N/A    frame=  960 fps=3.8 q=24.8 size=N/A time=00:00:19.20 bitrate=N/A    frame=  962 fps=3.8 q=24.8 size=N/A time=00:00:19.24 bitrate=N/A    frame=  964 fps=3.8 q=24.8 size=N/A time=00:00:19.28 bitrate=N/A    frame=  967 fps=3.8 q=24.8 size=N/A time=00:00:19.34 bitrate=N/A    frame=  970 fps=3.8 q=24.8 size=N/A time=00:00:19.40 bitrate=N/A    frame=  972 fps=3.8 q=24.8 size=N/A time=00:00:19.44 bitrate=N/A    frame=  975 fps=3.8 q=24.8 size=N/A time=00:00:19.50 bitrate=N/A    frame=  977 fps=3.8 q=24.8 size=N/A time=00:00:19.54 bitrate=N/A    frame=  979 fps=3.8 q=24.8 size=N/A time=00:00:19.58 bitrate=N/A    frame=  981 fps=3.8 q=24.8 size=N/A time=00:00:19.62 bitrate=N/A    frame=  983 fps=3.8 q=24.8 size=N/A time=00:00:19.66 bitrate=N/A    frame=  985 fps=3.8 q=24.8 size=N/A time=00:00:19.70 bitrate=N/A    frame=  988 fps=3.8 q=24.8 size=N/A time=00:00:19.76 bitrate=N/A    frame=  990 fps=3.8 q=24.8 size=N/A time=00:00:19.80 bitrate=N/A    frame=  992 fps=3.8 q=24.8 size=N/A time=00:00:19.84 bitrate=N/A    frame=  995 fps=3.8 q=24.8 size=N/A time=00:00:19.90 bitrate=N/A    frame=  997 fps=3.8 q=24.8 size=N/A time=00:00:19.94 bitrate=N/A    frame= 1001 fps=3.8 q=24.8 size=N/A time=00:00:20.02 bitrate=N/A    frame= 1003 fps=3.8 q=24.8 size=N/A time=00:00:20.06 bitrate=N/A    frame= 1005 fps=3.8 q=24.8 size=N/A time=00:00:20.10 bitrate=N/A    frame= 1007 fps=3.8 q=24.8 size=N/A time=00:00:20.14 bitrate=N/A    frame= 1010 fps=3.8 q=24.8 size=N/A time=00:00:20.20 bitrate=N/A    frame= 1012 fps=3.8 q=24.8 size=N/A time=00:00:20.24 bitrate=N/A    frame= 1014 fps=3.8 q=24.8 size=N/A time=00:00:20.28 bitrate=N/A    frame= 1016 fps=3.8 q=24.8 size=N/A time=00:00:20.32 bitrate=N/A    frame= 1018 fps=3.8 q=24.8 size=N/A time=00:00:20.36 bitrate=N/A    frame= 1020 fps=3.8 q=24.8 size=N/A time=00:00:20.40 bitrate=N/A    frame= 1022 fps=3.8 q=24.8 size=N/A time=00:00:20.44 bitrate=N/A    frame= 1024 fps=3.8 q=24.8 size=N/A time=00:00:20.48 bitrate=N/A    frame= 1026 fps=3.8 q=24.8 size=N/A time=00:00:20.52 bitrate=N/A    frame= 1029 fps=3.8 q=24.8 size=N/A time=00:00:20.58 bitrate=N/A    frame= 1031 fps=3.8 q=24.8 size=N/A time=00:00:20.62 bitrate=N/A    frame= 1033 fps=3.8 q=24.8 size=N/A time=00:00:20.66 bitrate=N/A    frame= 1036 fps=3.8 q=24.8 size=N/A time=00:00:20.72 bitrate=N/A    frame= 1039 fps=3.8 q=24.8 size=N/A time=00:00:20.78 bitrate=N/A    frame= 1041 fps=3.8 q=24.8 size=N/A time=00:00:20.82 bitrate=N/A    frame= 1043 fps=3.8 q=24.8 size=N/A time=00:00:20.86 bitrate=N/A    frame= 1045 fps=3.8 q=24.8 size=N/A time=00:00:20.90 bitrate=N/A    frame= 1047 fps=3.8 q=24.8 size=N/A time=00:00:20.94 bitrate=N/A    frame= 1049 fps=3.8 q=24.8 size=N/A time=00:00:20.98 bitrate=N/A    frame= 1051 fps=3.8 q=24.8 size=N/A time=00:00:21.02 bitrate=N/A    frame= 1054 fps=3.8 q=24.8 size=N/A time=00:00:21.08 bitrate=N/A    frame= 1057 fps=3.8 q=24.8 size=N/A time=00:00:21.14 bitrate=N/A    frame= 1060 fps=3.8 q=24.8 size=N/A time=00:00:21.20 bitrate=N/A    frame= 1062 fps=3.8 q=24.8 size=N/A time=00:00:21.24 bitrate=N/A    frame= 1065 fps=3.8 q=24.8 size=N/A time=00:00:21.30 bitrate=N/A    frame= 1068 fps=3.8 q=24.8 size=N/A time=00:00:21.36 bitrate=N/A    frame= 1070 fps=3.8 q=24.8 size=N/A time=00:00:21.40 bitrate=N/A    frame= 1073 fps=3.8 q=24.8 size=N/A time=00:00:21.46 bitrate=N/A    frame= 1076 fps=3.8 q=24.8 size=N/A time=00:00:21.52 bitrate=N/A    frame= 1079 fps=3.8 q=24.8 size=N/A time=00:00:21.58 bitrate=N/A    frame= 1081 fps=3.8 q=24.8 size=N/A time=00:00:21.62 bitrate=N/A    frame= 1083 fps=3.8 q=24.8 size=N/A time=00:00:21.66 bitrate=N/A    frame= 1085 fps=3.8 q=24.8 size=N/A time=00:00:21.70 bitrate=N/A    frame= 1088 fps=3.8 q=24.8 size=N/A time=00:00:21.76 bitrate=N/A    frame= 1091 fps=3.8 q=24.8 size=N/A time=00:00:21.82 bitrate=N/A    frame= 1093 fps=3.8 q=24.8 size=N/A time=00:00:21.86 bitrate=N/A    frame= 1095 fps=3.8 q=24.8 size=N/A time=00:00:21.90 bitrate=N/A    frame= 1097 fps=3.8 q=24.8 size=N/A time=00:00:21.94 bitrate=N/A    frame= 1100 fps=3.8 q=24.8 size=N/A time=00:00:22.00 bitrate=N/A    frame= 1102 fps=3.8 q=24.8 size=N/A time=00:00:22.04 bitrate=N/A    frame= 1105 fps=3.8 q=24.8 size=N/A time=00:00:22.10 bitrate=N/A    frame= 1108 fps=3.8 q=24.8 size=N/A time=00:00:22.16 bitrate=N/A    frame= 1110 fps=3.8 q=24.8 size=N/A time=00:00:22.20 bitrate=N/A    frame= 1112 fps=3.8 q=24.8 size=N/A time=00:00:22.24 bitrate=N/A    frame= 1114 fps=3.8 q=24.8 size=N/A time=00:00:22.28 bitrate=N/A    frame= 1116 fps=3.8 q=24.8 size=N/A time=00:00:22.32 bitrate=N/A    frame= 1118 fps=3.8 q=24.8 size=N/A time=00:00:22.36 bitrate=N/A    frame= 1121 fps=3.8 q=24.8 size=N/A time=00:00:22.42 bitrate=N/A    frame= 1123 fps=3.8 q=24.8 size=N/A time=00:00:22.46 bitrate=N/A    frame= 1125 fps=3.8 q=24.8 size=N/A time=00:00:22.50 bitrate=N/A    frame= 1127 fps=3.8 q=24.8 size=N/A time=00:00:22.54 bitrate=N/A    frame= 1129 fps=3.8 q=24.8 size=N/A time=00:00:22.58 bitrate=N/A    frame= 1131 fps=3.8 q=24.8 size=N/A time=00:00:22.62 bitrate=N/A    frame= 1133 fps=3.8 q=24.8 size=N/A time=00:00:22.66 bitrate=N/A    frame= 1135 fps=3.8 q=24.8 size=N/A time=00:00:22.70 bitrate=N/A    frame= 1137 fps=3.8 q=24.8 size=N/A time=00:00:22.74 bitrate=N/A    frame= 1139 fps=3.8 q=24.8 size=N/A time=00:00:22.78 bitrate=N/A    frame= 1141 fps=3.8 q=24.8 size=N/A time=00:00:22.82 bitrate=N/A    frame= 1143 fps=3.8 q=24.8 size=N/A time=00:00:22.86 bitrate=N/A    frame= 1145 fps=3.8 q=24.8 size=N/A time=00:00:22.90 bitrate=N/A    frame= 1147 fps=3.8 q=24.8 size=N/A time=00:00:22.94 bitrate=N/A    frame= 1149 fps=3.8 q=24.8 size=N/A time=00:00:22.98 bitrate=N/A    frame= 1151 fps=3.8 q=24.8 size=N/A time=00:00:23.02 bitrate=N/A    frame= 1153 fps=3.8 q=24.8 size=N/A time=00:00:23.06 bitrate=N/A    frame= 1155 fps=3.8 q=24.8 size=N/A time=00:00:23.10 bitrate=N/A    frame= 1157 fps=3.8 q=24.8 size=N/A time=00:00:23.14 bitrate=N/A    frame= 1159 fps=3.8 q=24.8 size=N/A time=00:00:23.18 bitrate=N/A    frame= 1161 fps=3.8 q=24.8 size=N/A time=00:00:23.22 bitrate=N/A    frame= 1165 fps=3.8 q=24.8 size=N/A time=00:00:23.30 bitrate=N/A    frame= 1168 fps=3.8 q=24.8 size=N/A time=00:00:23.36 bitrate=N/A    frame= 1171 fps=3.8 q=24.8 size=N/A time=00:00:23.42 bitrate=N/A    frame= 1173 fps=3.8 q=24.8 size=N/A time=00:00:23.46 bitrate=N/A    frame= 1175 fps=3.8 q=24.8 size=N/A time=00:00:23.50 bitrate=N/A    frame= 1177 fps=3.8 q=24.8 size=N/A time=00:00:23.54 bitrate=N/A    frame= 1179 fps=3.8 q=24.8 size=N/A time=00:00:23.58 bitrate=N/A    frame= 1181 fps=3.8 q=24.8 size=N/A time=00:00:23.62 bitrate=N/A    frame= 1183 fps=3.8 q=24.8 size=N/A time=00:00:23.66 bitrate=N/A    frame= 1185 fps=3.8 q=24.8 size=N/A time=00:00:23.70 bitrate=N/A    frame= 1187 fps=3.8 q=24.8 size=N/A time=00:00:23.74 bitrate=N/A    frame= 1189 fps=3.8 q=24.8 size=N/A time=00:00:23.78 bitrate=N/A    frame= 1191 fps=3.8 q=24.8 size=N/A time=00:00:23.82 bitrate=N/A    frame= 1193 fps=3.8 q=24.8 size=N/A time=00:00:23.86 bitrate=N/A    frame= 1195 fps=3.8 q=24.8 size=N/A time=00:00:23.90 bitrate=N/A    frame= 1198 fps=3.8 q=24.8 size=N/A time=00:00:23.96 bitrate=N/A    frame= 1200 fps=3.8 q=24.8 size=N/A time=00:00:24.00 bitrate=N/A    frame= 1202 fps=3.8 q=24.8 size=N/A time=00:00:24.04 bitrate=N/A    frame= 1204 fps=3.8 q=24.8 size=N/A time=00:00:24.08 bitrate=N/A    frame= 1206 fps=3.8 q=24.8 size=N/A time=00:00:24.12 bitrate=N/A    frame= 1208 fps=3.8 q=24.8 size=N/A time=00:00:24.16 bitrate=N/A    frame= 1210 fps=3.8 q=24.8 size=N/A time=00:00:24.20 bitrate=N/A    frame= 1213 fps=3.8 q=24.8 size=N/A time=00:00:24.26 bitrate=N/A    frame= 1216 fps=3.8 q=24.8 size=N/A time=00:00:24.32 bitrate=N/A    frame= 1218 fps=3.8 q=24.8 size=N/A time=00:00:24.36 bitrate=N/A    frame= 1220 fps=3.8 q=24.8 size=N/A time=00:00:24.40 bitrate=N/A    frame= 1223 fps=3.8 q=24.8 size=N/A time=00:00:24.46 bitrate=N/A    frame= 1226 fps=3.8 q=24.8 size=N/A time=00:00:24.52 bitrate=N/A    frame= 1229 fps=3.8 q=24.8 size=N/A time=00:00:24.58 bitrate=N/A    frame= 1231 fps=3.8 q=24.8 size=N/A time=00:00:24.62 bitrate=N/A    frame= 1233 fps=3.8 q=24.8 size=N/A time=00:00:24.66 bitrate=N/A    frame= 1235 fps=3.8 q=24.8 size=N/A time=00:00:24.70 bitrate=N/A    frame= 1237 fps=3.8 q=24.8 size=N/A time=00:00:24.74 bitrate=N/A    frame= 1239 fps=3.8 q=24.8 size=N/A time=00:00:24.78 bitrate=N/A    frame= 1241 fps=3.8 q=24.8 size=N/A time=00:00:24.82 bitrate=N/A    frame= 1243 fps=3.8 q=24.8 size=N/A time=00:00:24.86 bitrate=N/A    frame= 1246 fps=3.8 q=24.8 size=N/A time=00:00:24.92 bitrate=N/A    frame= 1249 fps=3.8 q=24.8 size=N/A time=00:00:24.98 bitrate=N/A    frame= 1251 fps=3.8 q=24.8 size=N/A time=00:00:25.02 bitrate=N/A    frame= 1253 fps=3.8 q=24.8 size=N/A time=00:00:25.06 bitrate=N/A    frame= 1255 fps=3.8 q=24.8 size=N/A time=00:00:25.10 bitrate=N/A    frame= 1257 fps=3.8 q=24.8 size=N/A time=00:00:25.14 bitrate=N/A    frame= 1259 fps=3.8 q=24.8 size=N/A time=00:00:25.18 bitrate=N/A    frame= 1261 fps=3.8 q=24.8 size=N/A time=00:00:25.22 bitrate=N/A    frame= 1263 fps=3.8 q=24.8 size=N/A time=00:00:25.26 bitrate=N/A    frame= 1265 fps=3.8 q=24.8 size=N/A time=00:00:25.30 bitrate=N/A    frame= 1267 fps=3.8 q=24.8 size=N/A time=00:00:25.34 bitrate=N/A    frame= 1269 fps=3.8 q=24.8 size=N/A time=00:00:25.38 bitrate=N/A    frame= 1271 fps=3.8 q=24.8 size=N/A time=00:00:25.42 bitrate=N/A    frame= 1274 fps=3.8 q=24.8 size=N/A time=00:00:25.48 bitrate=N/A    frame= 1276 fps=3.8 q=24.8 size=N/A time=00:00:25.52 bitrate=N/A    frame= 1279 fps=3.8 q=24.8 size=N/A time=00:00:25.58 bitrate=N/A    frame= 1281 fps=3.8 q=24.8 size=N/A time=00:00:25.62 bitrate=N/A    frame= 1284 fps=3.8 q=24.8 size=N/A time=00:00:25.68 bitrate=N/A    frame= 1287 fps=3.8 q=24.8 size=N/A time=00:00:25.74 bitrate=N/A    frame= 1289 fps=3.8 q=24.8 size=N/A time=00:00:25.78 bitrate=N/A    frame= 1291 fps=3.8 q=24.8 size=N/A time=00:00:25.82 bitrate=N/A    frame= 1293 fps=3.8 q=24.8 size=N/A time=00:00:25.86 bitrate=N/A    frame= 1295 fps=3.8 q=24.8 size=N/A time=00:00:25.90 bitrate=N/A    frame= 1297 fps=3.8 q=24.8 size=N/A time=00:00:25.94 bitrate=N/A    frame= 1299 fps=3.8 q=24.8 size=N/A time=00:00:25.98 bitrate=N/A    frame= 1301 fps=3.8 q=24.8 size=N/A time=00:00:26.02 bitrate=N/A    frame= 1303 fps=3.8 q=24.8 size=N/A time=00:00:26.06 bitrate=N/A    frame= 1307 fps=3.8 q=24.8 size=N/A time=00:00:26.14 bitrate=N/A    frame= 1310 fps=3.8 q=24.8 size=N/A time=00:00:26.20 bitrate=N/A    frame= 1312 fps=3.8 q=24.8 size=N/A time=00:00:26.24 bitrate=N/A    frame= 1315 fps=3.8 q=24.8 size=N/A time=00:00:26.30 bitrate=N/A    frame= 1317 fps=3.8 q=24.8 size=N/A time=00:00:26.34 bitrate=N/A    frame= 1319 fps=3.8 q=24.8 size=N/A time=00:00:26.38 bitrate=N/A    frame= 1320 fps=3.8 q=24.8 Lsize=N/A time=00:00:26.40 bitrate=N/A    
video:1251105kB audio:0kB subtitle:0kB other streams:0kB global headers:0kB muxing overhead: unknown
+ turkic load DJI_0067_30m_regi_disznoturas_regi_belvizfolt_homokmegy_20180603_napos_kalaszos_T4 /home/horvathandras/vatic/vatic/videos/DJI_0067_30m_regi_disznoturas_regi_belvizfolt_homokmegy_20180603_napos_kalaszos_T4 $'Pozit\303\255vROI' $'Negat\303\255vROI' $'T\303\272r\303\241s' '~Friss' '~1-2Hetes' '~Régebbi' '~Egyéb1' '~Egyéb2' '~Egyéb3' $'R\303\241g\303\241s' '~Friss' '~1-2Hetes' '~Régebbi' '~Egyéb1' '~Egyéb2' '~Egyéb3' $'T\303\266r\303\251s' '~Friss' '~1-2Hetes' '~Régebbi' '~Egyéb1' '~Egyéb2' '~Egyéb3' $'Tapos\303\241s' '~Friss' '~1-2Hetes' '~Régebbi' '~Egyéb1' '~Egyéb2' '~Egyéb3' $'Eg\303\251szs\303\251gesN\303\266v\303\251ny' $'Egy\303\251b1' $'Egy\303\251b2' $'Egy\303\251b3' $'Egy\303\251b4' $'Egy\303\251b5' Bizonytalan $'M\305\261vel\305\221\303\272t' $'Gktapos\303\241s' $'Vet\305\221hiba' $'Sz\303\251ld\303\266nt\303\251s' $'J\303\251gk\303\241r' $'Belv\303\255z' $'Asz\303\241ly' $'Er\303\263zi\303\263' $'Egyszik\305\261Gyom' $'K\303\251tszik\305\261Gyom' $'Egy\303\251bN\303\266vv\303\251delmiPR' --offline --title '$filenameNoDot Video' --length 1000 --description 'vatic annotation'
+ turkic publish --offline
+ mkdir /home/horvathandras/vatic/vatic/public/videothumbnails/DJI_0067_30m_regi_disznoturas_regi_belvizfolt_homokmegy_20180603_napos_kalaszos_T4
+ cp /home/horvathandras/vatic/vatic/videos/DJI_0067_30m_regi_disznoturas_regi_belvizfolt_homokmegy_20180603_napos_kalaszos_T4/0/0/31.jpg /home/horvathandras/vatic/vatic/public/videothumbnails/DJI_0067_30m_regi_disznoturas_regi_belvizfolt_homokmegy_20180603_napos_kalaszos_T4/thumb.jpg
